<?xml version="1.0"?>
<svg xmlns="http://www.w3.org/2000/svg" xmlns:xlink="http://www.w3.org/1999/xlink" version="1.1" viewBox="0 0 192 192" width="96px" height="96px"><g fill="none" fill-rule="nonzero" stroke="none" stroke-width="1" stroke-linecap="butt" stroke-linejoin="miter" stroke-miterlimit="10" stroke-dasharray="" stroke-dashoffset="0" font-family="none" font-weight="none" font-size="none" text-anchor="none" style="mix-blend-mode: normal"><path d="M0,192v-192h192v192z" fill="none"/><g fill="#69a038"><path d="M95.8575,4.05c-0.8059,0.0278 -1.5826,0.30856 -2.22,0.8025l-88.32,68.9175c-1.67342,1.30477 -1.97227,3.71908 -0.6675,5.3925c1.30477,1.67342 3.71908,1.97227 5.3925,0.6675l5.3175,-4.1475v100.9575c0.00021,2.12069 1.71931,3.83979 3.84,3.84h53.115c0.41469,0.06854 0.83781,0.06854 1.2525,0h44.8275c0.41469,0.06854 0.83781,0.06854 1.2525,0h53.1525c2.12069,-0.00021 3.83979,-1.71931 3.84,-3.84v-100.9575l5.3175,4.1475c1.08251,0.84416 2.53315,1.04665 3.80544,0.53119c1.27229,-0.51546 2.17292,-1.67055 2.3626,-3.03013c0.18968,-1.35958 -0.36041,-2.71706 -1.44304,-3.56106l-29.2425,-22.815v-27.915h-23.04v9.93l-36.0375,-28.1175c-0.7145,-0.55403 -1.60157,-0.83821 -2.505,-0.8025zM96,12.7575l72.96,56.9325v103.11h-46.08v-72.96h-53.76v72.96h-46.08v-103.11zM142.08,30.72h7.68v14.2425l-7.68,-6zM76.8,107.52h38.4v65.28h-38.4z"/></g></g></svg>
